# xmcd CD database file
#
# Track frame offsets:
#	150
#	22062
#	46800
#	65378
#	94974
#	126699
#	151142
#	168396
#	191281
#
# Disc length: 2884 seconds
#
# Revision: 0
# Processed by: cddbd v1.5.1PL0 Copyright (c) Steve Scherf et al.
# Submitted via: CDex 1.51
#
DISCID=750b4209
DTITLE=Bill Bruford's Earthworks - A Part, And Yet Apart
DYEAR=1999
DGENRE=Jazz
TTITLE0=No Truce with the Furies
TTITLE1=A Part, and Yet Apart
TTITLE2=Some Shiver, While He Cavorts
TTITLE3=Footloose and Fancy Free
TTITLE4=Sarah's Still Life
TTITLE5=The Emperor's New Clothes
TTITLE6=Curiouser and Curiouser
TTITLE7=Eyes on the Horizon
TTITLE8=Dewey-eyed, Then Dancing
EXTD=YEAR: 1999
EXTT0=
EXTT1=
EXTT2=
EXTT3=
EXTT4=
EXTT5=
EXTT6=
EXTT7=
EXTT8=
PLAYORDER=
